<svg width="17" height="17" viewBox="0 0 17 17" fill="none" xmlns="http://www.w3.org/2000/svg">
<g clip-path="url(#clip0_29_431)">
<rect x="0.27002" y="0.370117" width="16" height="16" rx="8" fill="black"/>
<g clip-path="url(#clip1_29_431)">
<g clip-path="url(#clip2_29_431)">
<g clip-path="url(#clip3_29_431)">
<path d="M15.9501 0.689941H0.590088V16.0499H15.9501V0.689941Z" fill="#000B1D"/>
<path d="M6.67007 13.2933C7.55372 13.2933 8.27007 12.5586 8.27007 11.6523V10.0112H6.67007C5.78641 10.0112 5.07007 10.7459 5.07007 11.6523C5.07007 12.5586 5.78641 13.2933 6.67007 13.2933Z" fill="#0ACF83"/>
<path d="M5.07007 8.37C5.07007 7.46369 5.78641 6.729 6.67007 6.729H8.27007V10.0111H6.67007C5.78641 10.0111 5.07007 9.27636 5.07007 8.37Z" fill="#A259FF"/>
<path d="M5.07007 5.0878C5.07007 4.18148 5.78641 3.44678 6.67007 3.44678H8.27007V6.72883H6.67007C5.78641 6.72883 5.07007 5.99412 5.07007 5.0878Z" fill="#F24E1E"/>
<path d="M8.27002 3.44678H9.87002C10.7537 3.44678 11.47 4.18148 11.47 5.0878C11.47 5.99412 10.7537 6.72883 9.87002 6.72883H8.27002V3.44678Z" fill="#FF7262"/>
<path d="M11.47 8.37C11.47 9.27636 10.7537 10.0111 9.87002 10.0111C8.98637 10.0111 8.27002 9.27636 8.27002 8.37C8.27002 7.46369 8.98637 6.729 9.87002 6.729C10.7537 6.729 11.47 7.46369 11.47 8.37Z" fill="#1ABCFE"/>
</g>
</g>
</g>
</g>
<defs>
<clipPath id="clip0_29_431">
<rect x="0.27002" y="0.370117" width="16" height="16" rx="8" fill="white"/>
</clipPath>
<clipPath id="clip1_29_431">
<rect width="16" height="16" fill="white" transform="translate(0.27002 0.370117)"/>
</clipPath>
<clipPath id="clip2_29_431">
<rect width="16" height="16" fill="white" transform="translate(0.27002 0.370117)"/>
</clipPath>
<clipPath id="clip3_29_431">
<rect width="15.36" height="16" fill="white" transform="translate(0.590088 0.370117)"/>
</clipPath>
</defs>
</svg>
