<svg width="16" height="17" viewBox="0 0 16 17" fill="none" xmlns="http://www.w3.org/2000/svg">
<g clip-path="url(#clip0_29_417)">
<rect y="0.370117" width="16" height="16" rx="8" fill="black"/>
<g clip-path="url(#clip1_29_417)">
<g clip-path="url(#clip2_29_417)">
<g clip-path="url(#clip3_29_417)">
<path d="M15.6801 0.689941H0.320068V16.0499H15.6801V0.689941Z" fill="#000B1D"/>
<mask id="mask0_29_417" style="mask-type:luminance" maskUnits="userSpaceOnUse" x="1" y="1" width="14" height="14">
<path d="M14.4001 1.97021H1.6001V14.7702H14.4001V1.97021Z" fill="white"/>
</mask>
<g mask="url(#mask0_29_417)">
<path d="M8.3116 7.64938V12.0867H7.48389V7.33789L8.3116 7.64938Z" fill="white"/>
<path d="M5.00488 7.23552C5.00488 6.1006 5.62355 5.48193 6.34888 5.48193C7.07425 5.48193 7.17665 5.58433 8.00007 5.9982C8.82356 6.41206 9.03265 6.51446 9.44647 6.51446C9.86036 6.51446 10.0652 6.203 10.0652 5.58433H10.7862C10.8886 6.82163 10.1676 7.33792 9.44225 7.33792C8.71687 7.33792 8.51207 7.23552 7.79105 6.82163C7.06996 6.4078 6.86087 6.3054 6.44702 6.3054C6.03315 6.3054 5.82835 6.61686 5.72595 7.33792L5.00488 7.23552Z" fill="white"/>
<path d="M8.0001 14.7702C4.47157 14.7702 1.6001 11.8987 1.6001 8.37021C1.6001 4.84168 4.47157 1.97021 8.0001 1.97021C11.5286 1.97021 14.4001 4.84168 14.4001 8.37021C14.4001 11.8987 11.5286 14.7702 8.0001 14.7702ZM8.0001 2.38408C4.6977 2.38408 2.01397 5.06781 2.01397 8.37021C2.01397 11.6726 4.6977 14.3563 8.0001 14.3563C11.3025 14.3563 13.9862 11.6726 13.9862 8.37021C13.9862 5.06781 11.3025 2.38408 8.0001 2.38408Z" fill="white"/>
</g>
</g>
</g>
</g>
</g>
<defs>
<clipPath id="clip0_29_417">
<rect y="0.370117" width="16" height="16" rx="8" fill="white"/>
</clipPath>
<clipPath id="clip1_29_417">
<rect width="16" height="16" fill="white" transform="translate(0 0.370117)"/>
</clipPath>
<clipPath id="clip2_29_417">
<rect width="16" height="16" fill="white" transform="translate(0 0.370117)"/>
</clipPath>
<clipPath id="clip3_29_417">
<rect width="15.36" height="16" fill="white" transform="translate(0.320068 0.370117)"/>
</clipPath>
</defs>
</svg>
