<svg width="16" height="17" viewBox="0 0 16 17" fill="none" xmlns="http://www.w3.org/2000/svg">
<g clip-path="url(#clip0_29_444)">
<rect y="0.370117" width="16" height="16" rx="8" fill="black"/>
<g clip-path="url(#clip1_29_444)">
<g clip-path="url(#clip2_29_444)">
<g clip-path="url(#clip3_29_444)">
<path d="M15.6801 0.689941H0.320068V16.0499H15.6801V0.689941Z" fill="#470137"/>
<path d="M8.39685 4.72728L6.47684 7.9765L8.52485 11.4226C8.53829 11.4465 8.5429 11.4744 8.53765 11.5014C8.53125 11.5277 8.50565 11.508 8.46725 11.5146H7.00165C6.89925 11.5146 6.82885 11.508 6.78405 11.4424C6.64964 11.1666 6.50884 10.8975 6.37444 10.6218C6.24004 10.3462 6.09284 10.077 5.93924 9.79474C5.78564 9.5125 5.63204 9.23026 5.47844 8.94143H5.46564C5.33124 9.22367 5.18404 9.50597 5.03684 9.78821C4.88964 10.0705 4.74244 10.3527 4.60164 10.6284C4.46084 10.9041 4.30724 11.1864 4.16004 11.4555C4.13444 11.5211 4.08324 11.5277 4.01284 11.5277H2.60484C2.57924 11.5277 2.56004 11.5408 2.56004 11.508C2.55719 11.4957 2.55685 11.4829 2.55906 11.4705C2.56126 11.4581 2.56595 11.4463 2.57284 11.4358L4.56324 8.08812L2.62404 4.72071C2.60484 4.69446 2.59844 4.6682 2.61124 4.65507C2.61904 4.64572 2.62894 4.63844 2.64009 4.63386C2.65124 4.62929 2.6633 4.62756 2.67524 4.62881H4.12804C4.15831 4.62949 4.1884 4.6339 4.21764 4.64194C4.24328 4.6561 4.26523 4.67635 4.28164 4.70102C4.40324 4.98328 4.54404 5.26553 4.69124 5.54779C4.83844 5.83004 4.99204 6.10574 5.15204 6.38143C5.31204 6.65712 5.44644 6.93279 5.58084 7.21509H5.59364C5.72804 6.92626 5.86884 6.644 6.00964 6.3683C6.15044 6.09261 6.29764 5.81692 6.44484 5.54122C6.59204 5.26553 6.73285 4.98328 6.87365 4.71415C6.87852 4.68831 6.89209 4.66506 6.91205 4.64851C6.9374 4.63417 6.96684 4.62951 6.99525 4.63538H8.34565C8.35321 4.63364 8.36101 4.63345 8.36869 4.63482C8.37631 4.63618 8.38361 4.63909 8.39013 4.64336C8.39666 4.64762 8.40236 4.65318 8.40677 4.65969C8.41125 4.66621 8.41439 4.67356 8.41605 4.68133C8.42245 4.68789 8.40965 4.71415 8.39685 4.72728Z" fill="#FF61F6"/>
<path d="M11.3538 11.6523C10.8794 11.6603 10.4093 11.5594 9.97783 11.3569C9.57636 11.1644 9.23997 10.8536 9.01143 10.4642C8.77463 10.0638 8.65943 9.56494 8.65943 8.96763C8.6529 8.48187 8.77457 8.00328 9.01143 7.5826C9.25431 7.15502 9.60605 6.80327 10.029 6.56514C10.477 6.30914 11.0146 6.18443 11.6482 6.18443C11.6931 6.18391 11.738 6.1861 11.7826 6.19099C11.8402 6.19756 11.9042 6.19756 11.981 6.20412V4.12987C11.981 4.08392 12.0002 4.05766 12.045 4.05766H13.3442C13.3586 4.05567 13.3731 4.05929 13.385 4.06781C13.3968 4.07632 13.4051 4.08911 13.4082 4.10361V10.3658C13.4082 10.4839 13.4146 10.6152 13.421 10.7596C13.4274 10.904 13.4402 11.0287 13.4466 11.1403C13.448 11.1625 13.4425 11.1845 13.4311 11.2034C13.4196 11.2222 13.4027 11.2369 13.3826 11.2453C13.0474 11.3898 12.6975 11.4955 12.3394 11.5605C12.0141 11.6206 11.6843 11.6513 11.3538 11.6523ZM11.981 10.3395V7.45128C11.924 7.4372 11.8663 7.42625 11.8082 7.41851C11.7378 7.41192 11.6674 7.40532 11.597 7.40532C11.3461 7.40244 11.0982 7.46094 10.8738 7.57601C10.6551 7.68775 10.4679 7.85499 10.3298 8.06177C10.189 8.27182 10.1186 8.55406 10.1186 8.89537C10.1131 9.12577 10.1499 9.35515 10.2274 9.57153C10.2893 9.74644 10.3876 9.90548 10.5154 10.0376C10.6388 10.1583 10.7877 10.2482 10.9506 10.3001C11.122 10.3577 11.3014 10.3865 11.4818 10.3855C11.5778 10.3855 11.6674 10.3789 11.7506 10.3723C11.8288 10.3781 11.9073 10.3669 11.981 10.3395Z" fill="#FF61F6"/>
</g>
</g>
</g>
</g>
<defs>
<clipPath id="clip0_29_444">
<rect y="0.370117" width="16" height="16" rx="8" fill="white"/>
</clipPath>
<clipPath id="clip1_29_444">
<rect width="16" height="16" fill="white" transform="translate(0 0.370117)"/>
</clipPath>
<clipPath id="clip2_29_444">
<rect width="16" height="16" fill="white" transform="translate(0 0.370117)"/>
</clipPath>
<clipPath id="clip3_29_444">
<rect width="15.36" height="16" fill="white" transform="translate(0.320068 0.370117)"/>
</clipPath>
</defs>
</svg>
