<svg width="17" height="17" viewBox="0 0 17 17" fill="none" xmlns="http://www.w3.org/2000/svg">
<g clip-path="url(#clip0_29_453)">
<rect x="0.970215" y="0.370117" width="16" height="16" rx="8" fill="black"/>
<g clip-path="url(#clip1_29_453)">
<g clip-path="url(#clip2_29_453)">
<g clip-path="url(#clip3_29_453)">
<path d="M16.6503 0.689941H1.29028V16.0499H16.6503V0.689941Z" fill="#001E36"/>
<path d="M4.74634 11.4617V4.70729C4.74634 4.66134 4.76554 4.63509 4.81034 4.63509C4.91914 4.63509 5.02154 4.63509 5.16874 4.62852C5.31594 4.62196 5.48234 4.62196 5.65514 4.6154C5.82794 4.60883 6.01354 4.60883 6.21194 4.60227C6.41034 4.5957 6.60234 4.5957 6.79434 4.5957C7.31914 4.5957 7.75434 4.66134 8.11274 4.79919C8.43402 4.91109 8.72695 5.09496 8.97034 5.33744C9.17655 5.54965 9.33591 5.80486 9.43754 6.08575C9.53443 6.35931 9.58423 6.64805 9.58474 6.9391C9.58474 7.50358 9.45674 7.96963 9.20074 8.33725C8.94352 8.70435 8.58448 8.98339 8.17034 9.13808C7.73514 9.30217 7.25514 9.36125 6.73034 9.36125C6.57674 9.36125 6.47434 9.36125 6.41034 9.35465C6.34634 9.34812 6.25674 9.34813 6.13514 9.34813V11.4552C6.13657 11.466 6.13587 11.477 6.13308 11.4875C6.13029 11.498 6.12547 11.5079 6.1189 11.5164C6.11233 11.525 6.10416 11.5321 6.09486 11.5374C6.08555 11.5427 6.07531 11.5459 6.06474 11.5471H4.82314C4.77194 11.5471 4.74634 11.5209 4.74634 11.4617ZM6.14154 5.90196V8.10749C6.23114 8.11408 6.31434 8.12061 6.39114 8.12061H6.73034C6.98019 8.12093 7.22853 8.08105 7.46634 8.00246C7.67036 7.94096 7.85264 7.82013 7.99114 7.65456C8.12554 7.49046 8.18954 7.26729 8.18954 6.97846C8.19555 6.77334 8.14448 6.57071 8.04234 6.39427C7.93565 6.22384 7.77866 6.09276 7.59434 6.02011C7.35408 5.9236 7.09699 5.87891 6.83914 5.88883C6.67274 5.88883 6.52554 5.88883 6.40394 5.8954C6.31646 5.88953 6.22864 5.89173 6.14154 5.90196Z" fill="#31A8FF"/>
<path d="M13.5783 7.7071C13.3851 7.60272 13.1781 7.52758 12.9639 7.48393C12.7286 7.42928 12.4883 7.40067 12.2471 7.39862C12.1176 7.39401 11.9881 7.4095 11.8631 7.44457C11.7833 7.4616 11.7127 7.50838 11.6647 7.57584C11.6324 7.62909 11.6146 7.69033 11.6135 7.75305C11.6164 7.81552 11.6389 7.87536 11.6775 7.92374C11.7382 7.9967 11.8121 8.05693 11.8951 8.10096C12.0423 8.17974 12.1959 8.25193 12.3495 8.3176C12.6953 8.43696 13.0261 8.59779 13.3351 8.79677C13.5453 8.93232 13.7191 9.11958 13.8407 9.3416C13.9435 9.55101 13.9941 9.78333 13.9879 10.0177C13.9931 10.328 13.906 10.6325 13.7383 10.8907C13.5598 11.1527 13.3107 11.3557 13.0215 11.4749C12.7079 11.6128 12.3239 11.685 11.8631 11.685C11.5709 11.6862 11.2793 11.6576 10.9927 11.5996C10.767 11.5596 10.5474 11.489 10.3399 11.3896C10.3176 11.3781 10.299 11.3602 10.2865 11.338C10.274 11.3159 10.2681 11.2905 10.2695 11.2649V10.1227C10.2689 10.1115 10.271 10.1003 10.2754 10.09C10.2799 10.0798 10.2866 10.0707 10.2951 10.0636C10.3041 10.0583 10.3145 10.056 10.325 10.0572C10.3353 10.0583 10.3451 10.0629 10.3527 10.0702C10.5992 10.2193 10.867 10.3278 11.1463 10.3918C11.3929 10.4576 11.6467 10.4907 11.9015 10.4903C12.1447 10.4903 12.3175 10.4575 12.4327 10.3984C12.4841 10.374 12.5276 10.3352 12.5583 10.2864C12.5889 10.2375 12.6052 10.1808 12.6055 10.1227C12.6055 10.0308 12.5543 9.9455 12.4519 9.86013C12.3495 9.77481 12.1383 9.67638 11.8247 9.55165C11.503 9.43536 11.1975 9.27651 10.9159 9.07901C10.7153 8.93245 10.5492 8.74179 10.4295 8.52105C10.3273 8.31376 10.2768 8.08374 10.2823 7.85155C10.2833 7.57142 10.3584 7.29686 10.4999 7.05725C10.6624 6.79376 10.8959 6.58406 11.1719 6.45338C11.4727 6.29584 11.8503 6.22363 12.3047 6.22363C12.5703 6.22372 12.8355 6.24345 13.0983 6.28271C13.2872 6.30894 13.4722 6.35967 13.6487 6.43369C13.6768 6.44391 13.6998 6.46516 13.7127 6.49277C13.7201 6.51839 13.7243 6.54484 13.7255 6.57153V7.6415C13.7256 7.65424 13.7227 7.66685 13.7172 7.67824C13.7116 7.68963 13.7035 7.69955 13.6935 7.7071C13.6562 7.72086 13.6155 7.72086 13.5783 7.7071Z" fill="#31A8FF"/>
</g>
</g>
</g>
</g>
<defs>
<clipPath id="clip0_29_453">
<rect x="0.970215" y="0.370117" width="16" height="16" rx="8" fill="white"/>
</clipPath>
<clipPath id="clip1_29_453">
<rect width="16" height="16" fill="white" transform="translate(0.970215 0.370117)"/>
</clipPath>
<clipPath id="clip2_29_453">
<rect width="16" height="16" fill="white" transform="translate(0.970215 0.370117)"/>
</clipPath>
<clipPath id="clip3_29_453">
<rect width="15.36" height="16" fill="white" transform="translate(1.29028 0.370117)"/>
</clipPath>
</defs>
</svg>
